<?xml version="1.0" encoding="UTF-8"?>
<svg id="Layer_2" data-name="Layer 2" xmlns="http://www.w3.org/2000/svg" viewBox="0 0 284.55 477.95">
  <defs>
    <style>
      .cls-1 {
        fill: #c1c1c1;
      }

      .cls-1, .cls-2, .cls-3, .cls-4, .cls-5, .cls-6, .cls-7, .cls-8, .cls-9, .cls-10, .cls-11, .cls-12, .cls-13, .cls-14, .cls-15, .cls-16, .cls-17, .cls-18, .cls-19, .cls-20, .cls-21, .cls-22, .cls-23, .cls-24, .cls-25, .cls-26, .cls-27, .cls-28, .cls-29, .cls-30, .cls-31, .cls-32, .cls-33, .cls-34, .cls-35, .cls-36 {
        stroke-width: 0px;
      }

      .cls-2 {
        fill: #05cdff;
      }

      .cls-3 {
        fill: #fcfbf8;
      }

      .cls-4 {
        fill: #3cd8ff;
      }

      .cls-5 {
        fill: #33c1dd;
      }

      .cls-6 {
        fill: #fd6666;
      }

      .cls-7 {
        fill: #dcd2c3;
      }

      .cls-8 {
        fill: #666564;
      }

      .cls-9 {
        fill: #f5fafa;
      }

      .cls-10 {
        fill: #fbb561;
      }

      .cls-11 {
        fill: #fbcd8f;
      }

      .cls-12 {
        fill: #34c1dd;
      }

      .cls-13 {
        fill: #e3e3e3;
      }

      .cls-14 {
        fill: #6f8586;
      }

      .cls-15 {
        fill: #f5f5f5;
      }

      .cls-16 {
        fill: #756860;
      }

      .cls-17 {
        fill: #464545;
      }

      .cls-18 {
        fill: #69d1e6;
      }

      .cls-19 {
        fill: #fab460;
      }

      .cls-20 {
        fill: #fccd90;
      }

      .cls-21 {
        fill: #5d5c5c;
      }

      .cls-22 {
        fill: #f9faf8;
      }

      .cls-23 {
        fill: #fbbf78;
      }

      .cls-24 {
        fill: #03ccff;
      }

      .cls-25 {
        fill: #887a79;
      }

      .cls-26 {
        fill: #68d0e5;
      }

      .cls-27 {
        fill: #625751;
      }

      .cls-28 {
        fill: #fdcd90;
      }

      .cls-29 {
        fill: #acacac;
      }

      .cls-30 {
        fill: #746861;
      }

      .cls-31 {
        fill: #fbb853;
      }

      .cls-32 {
        fill: #c5c5c5;
      }

      .cls-33 {
        fill: #39c4e0;
      }

      .cls-34 {
        fill: #fbc078;
      }

      .cls-35 {
        fill: #dad9d9;
      }

      .cls-36 {
        fill: #e5e3e1;
      }
    </style>
  </defs>
  <g id="Layer_1-2" data-name="Layer 1">
    <g>
      <path class="cls-16" d="M214.23,6.8c10.02,8.31,13.58,18.4,15.22,31.08,1.35,16.78-1.49,33.17-7,49,1.04-.35,2.07-.7,3.14-1.06,1.37-.46,2.74-.92,4.11-1.38.68-.23,1.36-.46,2.07-.7,6.93-2.32,12.59-3.1,19.87-3.18.91-.03,1.82-.06,2.75-.09,7.77-.07,13.25,2.06,19.81,6.09,6.76,6.95,10.03,16.64,10.35,26.24-.46,8.18-2.72,14.12-8.72,19.76-10.85,8.72-23.93,11.2-37.38,13.31.31.48.61.96.93,1.46q11.56,18.26,15.07,28.54.47,1.31.96,2.65c2.9,9.03,4.27,20.79.14,29.64-3.42,5.3-7.71,9.34-13.78,11.28-5.01.92-11.67,1.75-16.32-.57q.02,1.68.05,3.39c.05,4.2.09,8.41.12,12.61.01,1.81.04,3.62.06,5.43.23,16.04-.65,29.63-11.6,42.32q-1.3,1.11-2.62,2.25c-.54.48-1.08.96-1.63,1.45-12.27,10.17-29.59,12.44-45.01,13.34q-2.51.13-5.36,1.21.9.71,1.81,1.44c4.81,5.64,6.63,14.24,6.19,21.56q-.91,2.76-2.06,5.56c-2.23,5.54-2.21,8.94.06,14.44q2.93,6.92,7.86,12.35c2.76.83,4.75.52,7.58.09,3.72-.43,5.2-.6,8.69.94,3.3,2.86,3.52,4.9,4.5,9.25.28,1.21.56,2.42.85,3.66.56,3.97.6,6.84-.48,10.71-3.86,3.32-8.72,5.06-13.81,4.93-4.88-.92-9.75-1.99-12.81-6.12q-1.38-2.81-2.14-5.99c-1.25-4.49-3.71-7.97-6.36-11.76q-.7-1.03-1.42-2.07c-1.14-1.67-2.3-3.33-3.46-4.99-.34,2.06-.67,4.12-1,6.19-.19,1.15-.37,2.3-.56,3.48q-.96,5.2.66,9.93c.5.48,1.01.97,1.52,1.46,4.92,5.3,8.1,12.11,10.38,18.94-.12,2.33-.25,4.66-.39,6.99-.26,10.35,3.62,18.81,7.71,28.13.7,1.66,1.4,3.32,2.09,4.98q3.46,8.23,7.32,16.28,1.28,2.62,1.28,4.62,1.11.34,2.25.69c5.31,2.53,7.38,7.24,9.5,12.5.43,1.05.86,2.09,1.3,3.17q.95,2.64.95,4.64c-10.49.93-20.86,1.12-31.38,1.06-1.53,0-3.05,0-4.58-.01-3.68-.01-7.36-.03-11.05-.05v-5h2c-.14-.66-.28-1.31-.42-1.99-1.43-6.81-2.86-13.63-4.28-20.44-.53-2.54-1.07-5.09-1.6-7.63-.77-3.65-1.53-7.31-2.29-10.96-.24-1.14-.48-2.28-.73-3.45-.22-1.06-.44-2.12-.67-3.21-.2-.93-.39-1.87-.59-2.83q-.42-2.49-.42-6.49c-.91-.02-1.82-.04-2.75-.06q-3.25-.94-5.44-3.94c-4.17-8.45-5.97-16.64-5.81-26h-5c.05.8.09,1.6.14,2.42.31,9.3-.56,19.37-7.14,26.58q-2.69.25-5,0c-.12,1.25-.24,2.49-.36,3.78-.63,5.68-1.76,11.23-2.93,16.82q-.33,1.61-.67,3.26c-.7,3.4-1.4,6.81-2.11,10.21-.48,2.32-.95,4.64-1.43,6.96-1.16,5.66-2.33,11.32-3.51,16.98h2v4c-6.42.17-12.85.33-19.27.48-2.18.05-4.37.11-6.55.17-3.14.08-6.29.16-9.44.23q-1.46.04-2.94.08c-5.07.11-9.81-.06-14.81-.96q2-3,4.62-3.69c.78-.1,1.57-.21,2.38-.31q.24-.87.48-1.76c1.65-5.52,3.38-9.2,7.52-13.24.89-.33,1.77-.66,2.69-1,.76-.33,1.53-.66,2.31-1,.73-1.98,1.39-3.98,2-6,.79-2.02,1.6-4.03,2.43-6.04.47-1.14.93-2.28,1.42-3.46.49-1.18.97-2.36,1.47-3.57,1.43-3.48,2.86-6.96,4.27-10.45.97-2.38,1.96-4.75,2.96-7.12.48-1.15.95-2.31,1.44-3.49.44-1.03.87-2.07,1.32-3.13q.97-2.69-.17-4.96-.56-.88-1.13-1.79c-.54-11.23,3.85-20.13,10.71-28.68q1.52-2.24,1.12-4.74c-.57-1.78-1.18-3.55-1.82-5.31-1.06-3.45-1.5-6.61-1.85-10.2l-.39-3.91c-.13-1.35-.26-2.69-.38-4.04-.13-1.37-.27-2.74-.41-4.11-.33-3.34-.65-6.68-.97-10.02-.76.35-1.51.7-2.29,1.05-3.55,1.24-5.32.36-8.71-1.05-3.11,8.6-6.09,17.78-5,27q2.15,2.73,5,5,3.65,3.53,5,6c-.02,3.09-.24,5.21-.94,8.12-.13.7-.26,1.41-.4,2.13-.93,4.37-2.12,6.99-5.66,9.75-3.03,1.19-3.8,1.07-7,0-.8.21-1.61.42-2.43.63q-2.57.37-4.66-.85-9.67-9.05-10.21-15.4.63-6.78,2.82-8.69c1.93-2.18,1.95-3.49,2.12-6.37.06-.92.13-1.84.2-2.79.06-.98.12-1.95.18-2.96.88-11.46,2.26-21.33,8.11-31.41q1.12-2.09.37-4.12c-.72-3.07.55-4.53,2.15-7.16q.76-1.3,1.54-2.63c2.09-2.56,3.71-3.29,6.84-4.24v-2h3v-2q6.62-3,10-3v-2c-.65-.03-1.31-.05-1.98-.08-13.89-.86-26.39-5.72-36.02-15.92-3.51-1.17-4.99-.71-8.56.06-9.28,1.62-16.25-.14-24.17-5.22-5-4.07-8.3-9.75-10.27-15.84-.98-9.56-.83-17.94,5-26q2.62-2.94,5-5c1.01-.99,2.01-1.99,3-3-.38-.51-.75-1.02-1.14-1.55-13.03-18.52-15.27-40.73-12.14-62.73.55-5.04-.53-7.58-3.04-11.97C1.2,141.79.09,135.21.07,125.19q-.04-1.68-.07-3.4c-.05-14.75,5.93-24.96,15.7-35.67,11.03-10.38,24.34-14.34,39.09-14.36q12.07.33,22.03-5.51c1.54-1.79,3.08-3.58,4.62-5.38,9.74-7.26,17.49-10.52,29.56-10.44q1.52-.03,3.08-.06c6.11,0,9.75.38,14.36,4.5,5.58,7.48,4.36,16.09,4,25,4.62.99,9.24,1.98,14,3-.02-1.1-.04-2.21-.06-3.34-.07-4.17-.12-8.33-.16-12.5-.02-1.79-.05-3.58-.08-5.37-.34-17.84,1.74-36.56,14.62-50.27,13.99-12.66,37.51-15.62,53.46-4.61ZM91.45,298.88v1h5v-1h-5Z"/>
      <path class="cls-28" d="M93.45,184.88c2.57,2.47,4.93,5.05,7.25,7.75,1.25,1.42,2.5,2.84,3.75,4.25.56.64,1.12,1.28,1.7,1.95,7.72,8.3,17.98,15.15,28.52,19.32q1.77.73,4.27,2.36c6.19,3.4,12.83,3.58,19.75,3.69.69.02,1.37.04,2.08.05,4.41,0,7.27-.5,10.67-3.37,4.74-7.27,3.95-16.31,2.29-24.54-.54-2.03-1.11-4.06-1.73-6.07q-.56-2.39.44-5.39c.41.43.81.86,1.23,1.3,4.44,4.56,9.12,8.5,14.2,12.33.71.55,1.42,1.09,2.16,1.66,6.11,4.64,12.28,9.19,19.53,11.84,2.85,1.08,5.46,2.18,8.19,3.56,2.62,1.28,4.83,1.8,7.69,2.31.07,5.48.13,10.95.16,16.43.01,1.86.04,3.72.06,5.57.22,16.19-.53,29.93-11.6,42.75q-1.3,1.11-2.62,2.25c-.54.48-1.08.96-1.63,1.45-12.27,10.17-29.59,12.44-45.01,13.34q-2.51.13-5.36,1.21c.6.47,1.2.95,1.81,1.44,4.81,5.64,6.63,14.24,6.19,21.56q-.91,2.76-2.06,5.56c-2.23,5.54-2.21,8.94.06,14.44q2.93,6.92,7.86,12.35c2.76.83,4.75.52,7.58.09,3.72-.43,5.2-.6,8.69.94,3.3,2.86,3.52,4.9,4.5,9.25.28,1.21.56,2.42.85,3.66.56,3.97.6,6.84-.48,10.71-3.86,3.32-8.72,5.06-13.81,4.93-4.88-.92-9.75-1.99-12.81-6.12q-1.38-2.81-2.14-5.99c-1.25-4.49-3.71-7.97-6.36-11.76-.47-.68-.94-1.37-1.42-2.07-1.14-1.67-2.3-3.33-3.46-4.99-.34,2.06-.67,4.12-1,6.19-.19,1.15-.37,2.3-.56,3.48q-.96,5.2.66,9.93c.5.48,1.01.97,1.52,1.46,4.92,5.3,8.1,12.11,10.38,18.94-.12,2.33-.25,4.66-.39,6.99-.26,10.35,3.62,18.81,7.71,28.13.7,1.66,1.4,3.32,2.09,4.98q3.46,8.23,7.32,16.28,1.28,2.62,1.28,4.62,1.11.34,2.25.69c5.31,2.53,7.38,7.24,9.5,12.5.43,1.05.86,2.09,1.3,3.17q.95,2.64.95,4.64c-10.49.93-20.86,1.12-31.38,1.06-1.53,0-3.05,0-4.58-.01-3.68-.01-7.36-.03-11.05-.05v-5h2c-.14-.66-.28-1.31-.42-1.99-1.43-6.81-2.86-13.63-4.28-20.44-.53-2.54-1.07-5.09-1.6-7.63-.77-3.65-1.53-7.31-2.29-10.96-.24-1.14-.48-2.28-.73-3.45-.22-1.06-.44-2.12-.67-3.21-.2-.93-.39-1.87-.59-2.83q-.42-2.49-.42-6.49c-.91-.02-1.81-.04-2.75-.06q-3.25-.94-5.44-3.94c-4.17-8.45-5.97-16.64-5.81-26h-5c.05.8.09,1.6.14,2.42.31,9.3-.56,19.37-7.14,26.58q-2.69.25-5,0c-.12,1.25-.24,2.49-.36,3.78-.63,5.68-1.76,11.23-2.93,16.82-.22,1.07-.44,2.15-.67,3.26-.7,3.4-1.4,6.81-2.11,10.21-.48,2.32-.95,4.64-1.43,6.96-1.16,5.66-2.33,11.32-3.51,16.98h2v4c-6.42.17-12.85.33-19.27.48-2.18.05-4.37.11-6.55.17-3.14.08-6.29.16-9.44.23q-1.46.04-2.94.08c-5.07.11-9.81-.06-14.81-.96q2-3,4.62-3.69c.78-.1,1.57-.21,2.38-.31q.24-.87.48-1.76c1.65-5.52,3.38-9.2,7.52-13.24.89-.33,1.77-.66,2.69-1,.76-.33,1.53-.66,2.31-1,.73-1.98,1.39-3.98,2-6,.79-2.02,1.6-4.03,2.43-6.04.47-1.14.93-2.28,1.42-3.46.49-1.18.97-2.36,1.47-3.57,1.43-3.48,2.86-6.96,4.27-10.45.97-2.38,1.96-4.75,2.96-7.12.48-1.15.95-2.31,1.44-3.49q.65-1.55,1.32-3.13.97-2.69-.17-4.96c-.37-.59-.75-1.18-1.13-1.79-.54-11.23,3.85-20.13,10.71-28.68q1.52-2.24,1.12-4.74c-.57-1.78-1.18-3.55-1.82-5.31-1.06-3.45-1.5-6.61-1.85-10.2l-.39-3.91c-.13-1.35-.26-2.69-.38-4.04-.13-1.37-.27-2.74-.41-4.11-.33-3.34-.65-6.68-.97-10.02q-1.14.52-2.29,1.05c-3.55,1.24-5.32.36-8.71-1.05-3.11,8.6-6.09,17.78-5,27q2.15,2.73,5,5,3.65,3.53,5,6c-.02,3.09-.24,5.21-.94,8.12q-.2,1.05-.4,2.13c-.93,4.37-2.12,6.99-5.66,9.75-3.03,1.19-3.8,1.07-7,0-.8.21-1.61.42-2.43.63q-2.57.37-4.66-.85-9.67-9.05-10.21-15.4.63-6.78,2.82-8.69c1.93-2.18,1.95-3.49,2.12-6.37.06-.92.13-1.84.2-2.79.06-.98.12-1.95.18-2.96.88-11.46,2.26-21.33,8.11-31.41q1.12-2.09.37-4.12c-.72-3.07.55-4.53,2.15-7.16.51-.87,1.02-1.74,1.54-2.63,2.09-2.56,3.71-3.29,6.84-4.24v-2h3v-2q6.62-3,10-3v-2c-.65-.03-1.31-.05-1.98-.08-13.89-.86-26.39-5.72-36.02-15.92-3.51-1.17-4.99-.71-8.56.06-9.28,1.62-16.25-.14-24.17-5.22-5-4.07-8.3-9.75-10.27-15.84-.98-9.56-.83-17.94,5-26,1.58-1.89,3.13-3.38,5-5,.66-.66,1.32-1.32,2-2,2.93-.08,4.53.58,6.71,2.53,1.17,1.21,2.32,2.43,3.45,3.68q1.82,1.95,4.53,3.13,2.32,1.66,2.88,4.48c0,1.09,0,2.18,0,3.3.25,6.17,1.3,10.57,4.44,15.88.34.61.68,1.22,1.02,1.85,1.78,2.67,3.39,4.02,6.52,4.74,2.5.26,4.95.4,7.46.41v-2c.8-.64,1.61-1.28,2.44-1.94q2.8-1.87,3.56-5.06c.62-7.25-.22-13.29-3-20h-2q-.49-1.98-1-4c.79-.35,1.57-.7,2.38-1.07,15.87-7.46,22.75-19.8,28.59-35.87,1.45-4.33,2.81-8.67,4.03-13.07ZM91.45,298.88v1h5v-1h-5Z"/>
      <path class="cls-30" d="M93.45,358.88h3v2c.93.1,1.86.21,2.81.31,3.19.44,6.12,1.26,9.2,2.21,6.09,1.68,11.77,1.85,18.05,1.72q1.52,0,3.06-.02c6.34-.07,12.58-.49,18.87-1.23v-2c1.32-.33,2.64-.66,4-1-.07.79-.14,1.57-.21,2.38q-.48,6,1.34,11.55c1.03,1.07,2.07,2.12,3.14,3.14,4.42,4.91,8.91,13.35,8.57,20.04-.08,1.28-.16,2.56-.24,3.87-.26,10.35,3.62,18.81,7.71,28.13.7,1.66,1.4,3.32,2.09,4.98q3.46,8.23,7.32,16.28,1.28,2.62,1.28,4.62c.74.23,1.49.45,2.25.69,5.31,2.53,7.38,7.24,9.5,12.5.43,1.05.86,2.09,1.3,3.17q.95,2.64.95,4.64c-10.49.93-20.86,1.12-31.38,1.06-1.53,0-3.05,0-4.58-.01-3.68-.01-7.36-.03-11.05-.05v-5h2c-.14-.66-.28-1.31-.42-1.99-1.43-6.81-2.86-13.63-4.28-20.44-.53-2.54-1.07-5.09-1.6-7.63-.77-3.65-1.53-7.31-2.29-10.96-.24-1.14-.48-2.28-.73-3.45-.22-1.06-.44-2.12-.67-3.21-.2-.93-.39-1.87-.59-2.83q-.42-2.49-.42-6.49c-.91-.02-1.81-.04-2.75-.06q-3.25-.94-5.44-3.94c-4.17-8.45-5.97-16.64-5.81-26h-5c.05.8.09,1.6.14,2.42.31,9.3-.56,19.37-7.14,26.58q-2.69.25-5,0c-.12,1.25-.24,2.49-.36,3.78-.63,5.68-1.76,11.23-2.93,16.82-.22,1.07-.44,2.15-.67,3.26-.7,3.4-1.4,6.81-2.11,10.21-.48,2.32-.95,4.64-1.43,6.96-1.16,5.66-2.33,11.32-3.51,16.98h2v4c-6.42.17-12.85.33-19.27.48-2.18.05-4.37.11-6.55.17-3.14.08-6.29.16-9.44.23-.97.03-1.94.05-2.94.08-5.07.11-9.81-.06-14.81-.96q2-3,4.62-3.69c.78-.1,1.57-.21,2.38-.31.16-.58.32-1.16.48-1.76,1.65-5.52,3.38-9.2,7.52-13.24q1.33-.5,2.69-1,1.14-.5,2.31-1c.73-1.98,1.39-3.98,2-6,.79-2.02,1.6-4.03,2.43-6.04.47-1.14.93-2.28,1.42-3.46.49-1.18.97-2.36,1.47-3.57,1.43-3.48,2.86-6.96,4.27-10.45.97-2.38,1.96-4.75,2.96-7.12.48-1.15.95-2.31,1.44-3.49q.65-1.55,1.32-3.13.97-2.69-.17-4.96c-.37-.59-.75-1.18-1.13-1.79-.54-11.23,3.85-20.13,10.71-28.68q1.54-2.26,1.06-4.93c-.58-1.81-1.19-3.6-1.83-5.39-.9-2.88-1.11-5.02-.94-8Z"/>
      <path class="cls-26" d="M105.65,298.35c1.45,0,2.9,0,4.35-.01,3.02,0,6.04,0,9.07.02,3.86.02,7.72,0,11.59-.01,2.99-.01,5.98,0,8.97,0,1.42,0,2.85,0,4.27,0,1.99-.01,3.98,0,5.97.03q1.69,0,3.42,0c3.89.63,6.08,2.09,9.16,4.51,3.9,6,5.49,13.92,5,21q-.91,2.82-2.06,5.62c-2.24,5.52-2.21,8.89.06,14.38q2.93,6.92,7.86,12.35c2.76.83,4.75.52,7.58.09,3.72-.43,5.2-.6,8.69.94,3.3,2.86,3.52,4.9,4.5,9.25.28,1.21.56,2.42.85,3.66.56,3.97.6,6.84-.48,10.71-3.86,3.32-8.72,5.06-13.81,4.93-4.88-.92-9.75-1.99-12.81-6.12q-1.38-2.81-2.14-5.99c-1.25-4.49-3.71-7.97-6.36-11.76q-.7-1.03-1.42-2.07c-1.14-1.67-2.3-3.33-3.46-4.99-.33,2.31-.66,4.62-1,7h-5v2c-7.37,1.78-14.37,2.34-21.94,2.31-1.01.02-2.01.03-3.05.05-7.12,0-13.25-1.21-20.01-3.36-1.39-.4-2.79-.8-4.19-1.19-.93-.27-1.86-.54-2.81-.81v-2h-3c-1.21-2.42-1.3-4.31-1.54-7.01q-.13-1.48-.26-2.99t-.26-3.13c-.09-1.04-.18-2.08-.28-3.15-.22-2.57-.44-5.15-.66-7.72-.76.35-1.51.7-2.29,1.05-3.55,1.24-5.32.36-8.71-1.05-3.11,8.6-6.09,17.78-5,27q2.15,2.73,5,5,3.65,3.53,5,6c-.02,3.09-.24,5.21-.94,8.12-.13.7-.26,1.41-.4,2.13-.93,4.37-2.12,6.99-5.66,9.75-3.03,1.19-3.8,1.07-7,0-.8.21-1.61.42-2.43.63q-2.57.37-4.66-.85-9.67-9.05-10.21-15.4.63-6.78,2.82-8.69c1.93-2.18,1.95-3.49,2.12-6.37.06-.92.13-1.84.2-2.79.06-.98.12-1.95.18-2.96.88-11.46,2.26-21.33,8.11-31.41q1.12-2.09.37-4.12c-.72-3.07.55-4.53,2.15-7.16.51-.87,1.02-1.74,1.54-2.63,2.09-2.56,3.71-3.29,6.84-4.24v-2h3v-2c8.3-4.3,16.01-4.59,25.2-4.53Z"/>
      <path class="cls-19" d="M93.45,184.88c2.57,2.47,4.93,5.05,7.25,7.75,1.25,1.42,2.5,2.84,3.75,4.25.56.64,1.12,1.28,1.7,1.95,7.72,8.3,17.98,15.15,28.52,19.32q1.77.73,4.27,2.36c8.88,4.88,19.7,3.57,29.5,3.38q-1.8,3.85-3.62,5.19c-3.41,1.17-6.8,1.54-10.38,1.81-.66.05-1.31.11-1.99.16-11.8.49-25.13-2.58-35.01-9.16v-2c-.57-.26-1.14-.52-1.73-.78-2.48-1.33-4.4-2.87-6.52-4.72-.71-.61-1.41-1.22-2.14-1.84q-1.61-1.66-1.61-3.66c-6.13-.42-9.15-.14-14,4-13.14,12.76-20.19,30.34-20.46,48.55q-.15,14.57,5.02,27.88c.64,1.05,1.28,2.1,1.94,3.18.49.79.99,1.57,1.5,2.38-5.54.37-9.32-.66-14.12-3.25q-.89-.45-1.8-.91c-4.96-2.57-8.96-5.17-12.07-9.84-.89.17-1.79.34-2.71.51-11.28,1.9-19.26,1.6-29.02-4.66-5-4.07-8.3-9.75-10.27-15.84-.98-9.56-.83-17.94,5-26,1.58-1.89,3.13-3.38,5-5,.66-.66,1.32-1.32,2-2,2.93-.08,4.53.58,6.71,2.53,1.17,1.21,2.32,2.43,3.45,3.68q1.82,1.95,4.53,3.13,2.32,1.66,2.88,4.48c0,1.09,0,2.18,0,3.3.25,6.17,1.3,10.57,4.44,15.88.34.61.68,1.22,1.02,1.85,1.78,2.67,3.39,4.02,6.52,4.74,2.5.26,4.95.4,7.46.41v-2c.8-.64,1.61-1.28,2.44-1.94q2.8-1.87,3.56-5.06c.62-7.25-.22-13.29-3-20h-2q-.49-1.98-1-4c.79-.35,1.57-.7,2.38-1.07,15.87-7.46,22.75-19.8,28.59-35.87,1.45-4.33,2.81-8.67,4.03-13.07Z"/>
      <path class="cls-18" d="M70.45,71.88c-1.59,4.25-3.48,6.97-6.5,10.38-3.92,4.54-7.4,9.23-10.69,14.25-.42.64-.84,1.28-1.27,1.93-.81,1.24-1.62,2.48-2.43,3.73-3.66,5.62-7.36,10.98-11.93,15.9-10.49,11.56-18.24,25.92-25.19,39.81q-1.8-.11-4-1-1.63-2.73-3.12-6.19c-.5-1.13-1-2.26-1.51-3.42C.73,139.61.08,133.41.07,125.19c-.02-1.12-.05-2.24-.07-3.4-.05-14.75,5.93-24.96,15.7-35.67,15.79-14.87,34.43-14.87,54.75-14.25Z"/>
      <path class="cls-20" d="M87.45,407.88c3.01.54,5.32,1.15,8.12,2.44,4.73,2.14,9.78,2.78,14.88,3.56-.57,7.36-1.77,14.47-3.29,21.7-.22,1.07-.44,2.15-.67,3.25-.7,3.39-1.4,6.79-2.11,10.18-.48,2.32-.95,4.63-1.43,6.95-1.16,5.64-2.33,11.29-3.51,16.93h2v4c-6.42.17-12.85.33-19.27.48-2.18.05-4.37.11-6.55.17-3.14.08-6.29.16-9.44.23-.97.03-1.94.05-2.94.08-5.07.11-9.81-.06-14.81-.96q2-3,4.62-3.69c.78-.1,1.57-.21,2.38-.31.16-.58.32-1.16.48-1.76,1.65-5.52,3.38-9.2,7.52-13.24q1.33-.49,2.69-1,1.14-.49,2.31-1c.73-1.98,1.39-3.98,2-6,.78-2,1.58-3.98,2.39-5.96.46-1.12.92-2.25,1.39-3.41.48-1.18.97-2.35,1.47-3.57.99-2.42,1.98-4.84,2.97-7.27.48-1.17.95-2.33,1.45-3.53,2.48-6.07,4.91-12.17,7.33-18.26Z"/>
      <path class="cls-23" d="M164.45,407.88c.47,1.18.94,2.36,1.42,3.58,1.75,4.4,3.5,8.79,5.25,13.18.76,1.9,1.51,3.8,2.27,5.7,1.09,2.74,2.18,5.47,3.27,8.21.33.84.67,1.69,1.01,2.56,1.4,3.49,2.83,6.87,4.52,10.24q1.26,2.54,1.26,4.54c.74.23,1.49.45,2.25.69,5.31,2.53,7.38,7.24,9.5,12.5.43,1.05.86,2.09,1.3,3.17q.95,2.64.95,4.64c-10.49.93-20.86,1.12-31.38,1.06-1.53,0-3.05,0-4.58-.01-3.68-.01-7.36-.03-11.05-.05v-5h2c-.14-.65-.28-1.31-.42-1.98-1.43-6.8-2.86-13.59-4.28-20.39-.53-2.54-1.07-5.07-1.6-7.61-.77-3.65-1.53-7.29-2.29-10.94-.24-1.13-.48-2.27-.73-3.43-.22-1.06-.44-2.12-.67-3.21-.2-.93-.39-1.86-.59-2.82-.41-2.59-.49-5-.42-7.61,1.07-.23,2.15-.45,3.25-.69,4.94-1.21,9.47-3.23,14.11-5.29q2.64-1.02,5.64-1.02Z"/>
      <path class="cls-6" d="M125.99,52.73c4.02,3.52,6.16,6.82,6.64,12.15q.59,13.46-1.18,17c-.69-.01-1.38-.02-2.09-.03-17.31-.23-33.71-.42-49.85,6.72q-3.06,1.31-6.06,1.31v2c-1.01.4-2.01.8-3.05,1.21-4,1.72-7.52,3.93-11.14,6.35q-7.26,4.81-10.81,6.44c.54-4.58,2.36-7.39,5-11.12.4-.57.8-1.13,1.21-1.71,3.39-4.74,7.07-9.22,10.82-13.68,1.68-2.12,2.95-4.11,4.22-6.48,5.46-9.08,17.64-18.11,27.52-21.47,8.68-2.06,20.74-2.87,28.77,1.32Z"/>
      <path class="cls-22" d="M193.07,228.32c.99-.06,1.97-.13,2.99-.19,4.98-.11,8.71.2,12.55,3.56,4.67,6.33,3.76,14.62,3.58,22.13-.06,2.69-.06,5.37-.05,8.06-.02,1.72-.03,3.44-.06,5.16,0,.8,0,1.59,0,2.42-.16,5.33-1.15,8.33-4.63,12.42h-2c-.33.99-.66,1.98-1,3-3.54.18-7.08.28-10.62.38-1,.05-2,.1-3.03.15-.97.02-1.95.04-2.95.06-.89.03-1.78.06-2.7.1-4.11-1.04-6.48-3.09-8.7-6.68-.84-3.36-.82-6.59-.76-10.04,0-.96,0-1.91-.01-2.9,0-2.01.02-4.03.04-6.04.04-3.08.02-6.16,0-9.24,0-1.96.02-3.92.03-5.88,0-.92-.01-1.84-.02-2.78.1-4.6.22-6.5,3.2-10.18.83-.64,1.66-1.28,2.52-1.94,2.44-2.44,8.35-1.47,11.62-1.56Z"/>
      <path class="cls-9" d="M104.24,228.78c.94,0,1.88,0,2.85,0,.98,0,1.97.02,2.98.03.99,0,1.99,0,3.01.01,2.46.01,4.91.03,7.37.05v2c.78.27,1.57.54,2.38.81q2.62,1.19,4.62,4.19c.21,2.99.3,5.88.3,8.87,0,.87,0,1.74.01,2.64,0,1.84,0,3.69,0,5.53,0,2.82.02,5.63.05,8.45,0,1.79,0,3.59,0,5.38,0,.84.02,1.68.03,2.54-.04,4.73-.43,7.69-3.39,11.59q-.76,1.13-1.54,2.28c-4,2.8-8.14,2.34-12.9,2.29q-1.41.04-2.85.07c-4.71,0-6.96-.04-10.74-3.04-.65-.85-1.3-1.71-1.96-2.59l-2-2c-.24-3.09-.35-6.08-.37-9.17,0-.92-.02-1.83-.03-2.77-.01-1.94-.02-3.88-.03-5.82-.01-2.96-.06-5.92-.11-8.88,0-1.89-.02-3.77-.02-5.66-.02-.88-.04-1.76-.06-2.67.03-4.31.26-7.15,3.03-10.58,3.41-3.23,4.82-3.58,9.38-3.55Z"/>
      <path class="cls-11" d="M67.45,323.88c3.59.57,5.17,1.86,7.62,4.5q2.41,2.62,5.38,4.5c-1.03,3.24-2.13,6.29-3.56,9.38-1.55,3.9-2.16,7.48-2.44,11.62-.08.7-.15,1.39-.23,2.11-.27,3.84-.07,5.53,2.42,8.52.93.78,1.86,1.57,2.81,2.38q3.65,3.53,5,6c-.02,3.09-.24,5.21-.94,8.12-.13.7-.26,1.41-.4,2.13-.93,4.37-2.12,6.99-5.66,9.75-3.03,1.19-3.8,1.07-7,0-.8.21-1.61.42-2.43.63q-2.57.37-4.66-.85-9.67-9.05-10.21-15.4.63-6.78,2.82-8.69c1.93-2.18,1.95-3.49,2.12-6.37q.1-1.38.2-2.79c.06-.98.12-1.95.18-2.96.92-12.02,2.4-22.23,9-32.56Z"/>
      <path class="cls-27" d="M150.45,370.88c6.75,5.93,13.32,15.03,15,24,.22,4.35.18,8.65,0,13-2.5.96-5,1.92-7.5,2.88-.7.27-1.39.54-2.11.82q-14.6,5.54-20.39,3.31c-6.7-9.19-8.19-19.93-8-31,.63-.09,1.26-.17,1.91-.26,9.44-1.55,15.4-5.08,21.09-12.74Z"/>
      <path class="cls-34" d="M162.45,333.88q.33,1.13.66,2.27c2.19,7.08,4.71,13.84,9.34,19.73,3.31,1.1,4.96.85,8.38.38,3.71-.39,5.27-.53,8.75,1,3.3,2.86,3.52,4.9,4.5,9.25.28,1.21.56,2.42.85,3.66.56,3.97.6,6.84-.48,10.71-3.86,3.32-8.72,5.06-13.81,4.93-4.88-.92-9.75-1.99-12.81-6.12q-1.38-2.81-2.15-6.01c-1.44-4.46-3.55-7.7-6.23-11.49-4.64-6.68-7.33-10.66-7.12-19.06,0-.7.02-1.39.03-2.11.02-1.71.06-3.42.1-5.14q6.62-2,10-2Z"/>
      <path class="cls-2" d="M194.39,237.32c.81-.02,1.62-.05,2.46-.07q1.18,0,2.38,0t2.16,0c3.24.99,4.31,2.8,6.06,5.63q.52,3.06.53,6.44c0,1.22.01,2.45.02,3.71q-.02,1.91-.05,3.85c.02,1.27.03,2.54.05,3.85,0,1.22-.01,2.45-.02,3.71,0,1.12,0,2.23-.01,3.38-.64,3.75-1.79,5.43-4.52,8.06q-1.95.65-3.97.66c-.74,0-1.47.01-2.23.02-.76-.02-1.52-.04-2.3-.06-.76.02-1.52.04-2.3.06-.74,0-1.47-.01-2.23-.02-.67,0-1.33-.01-2.02-.02-3.15-1.05-4.23-2.87-5.95-5.65q-.5-3.17-.5-6.69c0-1.27,0-2.55,0-3.86.01-.66.02-1.32.03-1.99.03-2.01.02-4.02,0-6.04q.06-9.68,1.73-12.79c3.09-2.9,6.62-2.24,10.67-2.19Z"/>
      <path class="cls-5" d="M100.45,301.88c2.89,2.89,3.19,5.43,3.38,9.38-.14,4.48-1.35,7.66-3.38,11.62h-2c-.19.66-.37,1.32-.56,2-2.18,4.55-5.63,9.91-10.49,11.79-2.71.29-4.52-.65-6.95-1.79v-2c-.55-.24-1.1-.48-1.67-.73-2.87-1.56-5.17-3.45-7.64-5.58-.9-.76-1.81-1.52-2.74-2.3q-1.95-2.39-1.88-4.92c1.87-4.94,3.98-9.43,8.75-11.97.72-.16,1.44-.33,2.19-.5v-2h3v-2c7.26-3.88,12.51-4.99,20-1Z"/>
      <path class="cls-24" d="M110.32,237.44c.71-.02,1.42-.04,2.14-.06,3.45,0,5.71.33,8.68,2.12,2.99,3.09,2.94,4.69,2.96,8.94,0,1.27.01,2.55.02,3.86-.01.66-.02,1.32-.03,2-.03,2.01,0,4.02.03,6.03,0,1.27-.01,2.55-.02,3.86,0,1.16-.01,2.33-.02,3.53-.84,4.11-2.39,5.61-5.65,8.17-2.95.48-5.2.66-8.12.56-.72.01-1.43.02-2.17.03q-5.15-.07-7.41-2.19c-1.76-3.27-1.69-5.77-1.7-9.47,0-.68,0-1.35,0-2.05,0-1.42,0-2.85.02-4.27.02-2.18,0-4.35-.02-6.53,0-1.38,0-2.77.01-4.15,0-1.26,0-2.52.01-3.81q.39-3.12,1.69-5.03c2.93-1.88,6.21-1.56,9.58-1.53Z"/>
      <path class="cls-32" d="M181.45,451.88q.34.93.69,1.88,1.15,2.33,3.69,3.06c4.29,1.74,6.12,5.03,8.11,9.11.42,1.04.84,2.08,1.27,3.14.43,1.05.86,2.09,1.3,3.17q.95,2.64.95,4.64c-10.49.93-20.86,1.12-31.38,1.06-1.53,0-3.05,0-4.58-.01-3.68-.01-7.36-.03-11.05-.05v-5h2v-3c.63-.34,1.25-.68,1.9-1.02.82-.45,1.63-.89,2.48-1.35.81-.44,1.62-.88,2.46-1.34,2.7-1.61,3.95-2.66,4.98-5.66,1.59-3.53,2.77-4.74,6.19-6.62,3.69-.33,7.3-.23,11,0v-2Z"/>
      <path class="cls-13" d="M68.45,453.88c2.08-.05,4.17-.09,6.25-.12q1.74-.03,3.52-.07c3.15.19,4.74.31,7.23,2.2,1.41,2.49,2.46,5.04,3.56,7.69,1.78,2.85,3.27,3.38,6.44,4.31v2h4v3h2v4c-6.42.17-12.85.33-19.27.48-2.18.05-4.37.11-6.55.17-3.14.08-6.29.16-9.44.23-.97.03-1.94.05-2.94.08-5.07.11-9.81-.06-14.81-.96q2-3,4.62-3.69c.78-.1,1.57-.21,2.38-.31.16-.58.32-1.16.48-1.76,1.65-5.52,3.38-9.2,7.52-13.24q2.81-1.38,5-2v-2Z"/>
      <path class="cls-36" d="M176.45,437.88c.84,1.91,1.67,3.83,2.5,5.75.46,1.07.93,2.13,1.41,3.23q1.09,3.02,1.09,7.02c-.74.03-1.47.05-2.23.08q-6.19.34-11.83,2.67-2.05,2.13-2.94,4.75c-1.34,3.34-3.02,4.54-6,6.5-1.99.7-3.99,1.37-6,2-.68-2.5-1.34-5-2-7.5-.19-.7-.38-1.39-.58-2.11-1.28-4.94-1.86-9.29-1.42-14.39,2.44-3.96,6.38-5.77,10.62-7.38,5.7-1.13,11.6-.78,17.38-.62Z"/>
      <path class="cls-3" d="M75.45,437.88q18.43-.56,25.56,5.62c1.15,1.12,2.3,2.24,3.44,3.38-.64,3.27-1.29,6.54-1.94,9.81-.18.93-.36,1.86-.55,2.81q-.27,1.34-.54,2.71c-.16.82-.32,1.64-.49,2.49q-.48,2.18-1.48,5.18h-4v-2c-.76-.08-1.53-.17-2.31-.25-3.36-.94-3.96-1.76-5.69-4.75-.49-1.22-.99-2.43-1.5-3.69-.49-1.09-.99-2.19-1.5-3.31-3.16-1.05-5.87-1.31-9.19-1.56-1.09-.08-2.17-.17-3.29-.25q-1.25-.09-2.52-.18c1.75-5.47,3.66-10.76,6-16Z"/>
      <path class="cls-12" d="M156.45,298.88c4.53,1.92,6.37,4.19,8.31,8.56,3.59,10.33,2.98,17.43-1.31,27.44h-11c-.01-.81-.03-1.63-.04-2.46-.34-8.13-1.73-15.13-4.23-22.85-1.11-3.45-1.73-6.02-1.73-9.69,3.23-1.61,6.5-1.44,10-1Z"/>
      <path class="cls-10" d="M171.45,184.88c.42.36.84.73,1.28,1.1q18.21,15.95,39.5,27.06,2.22.84,5.53,2.53c2.61,1.27,4.83,1.89,7.69,2.31v5c-2.54.05-5.08.09-7.62.12-.71.02-1.43.03-2.16.05-4.48.04-7.99-.48-12.21-2.18v-2c-1.98-.33-3.96-.66-6-1v-2c-.56-.1-1.11-.21-1.69-.31-2.79-.83-4.93-2.03-7.31-3.69v-2c-.56-.24-1.11-.47-1.68-.72-6.52-3.61-12.26-9.55-14.44-16.72-.62-2.67-.88-4.81-.88-7.56Z"/>
      <path class="cls-17" d="M181.45,451.88q.34.93.69,1.88c1.69,2.74,3.3,3.18,6.31,4.12v1q-1.27.09-2.56.19c-8.07.87-13.23,2.41-18.44,8.81-.44.89-.87,1.79-1.32,2.71q-1.68,2.29-4.59,2.78c-1.08-.06-2.16-.12-3.27-.18-1.09-.05-2.17-.09-3.29-.14-.83-.06-1.66-.12-2.52-.18v-3c.63-.34,1.25-.68,1.9-1.02.82-.45,1.63-.89,2.48-1.35.81-.44,1.62-.88,2.46-1.34,2.7-1.61,3.95-2.66,4.98-5.66,1.59-3.53,2.77-4.74,6.19-6.62,3.69-.33,7.3-.23,11,0v-2Z"/>
      <path class="cls-21" d="M68.45,453.88c2.08-.05,4.17-.09,6.25-.12q1.74-.03,3.52-.07c3.15.19,4.74.31,7.23,2.2,1.41,2.49,2.46,5.04,3.56,7.69,1.78,2.85,3.27,3.38,6.44,4.31v2h4v3c-4.1.48-7.92.7-12,0-2.14-1.83-3.32-3.61-4.75-6.03-1.61-2.55-3.62-3.58-6.25-4.97v-2c-4.29-.33-8.58-.66-13-1l3-3h2v-2Z"/>
      <path class="cls-35" d="M150.45,472.88h46q.49,1.98,1,4c-10.49.93-20.86,1.12-31.38,1.06-1.53,0-3.05,0-4.58-.01-3.68-.01-7.36-.03-11.05-.05v-5Z"/>
      <path class="cls-15" d="M60.24,472.77q1.38,0,2.79,0t2.97.02c1.01,0,2.03,0,3.07,0,3.23,0,6.46.02,9.69.03,2.19,0,4.39,0,6.58.01,5.37.01,10.74.03,16.11.05v4c-6.42.17-12.85.33-19.27.48-2.18.05-4.37.11-6.55.17-3.14.08-6.29.16-9.44.23-.97.03-1.94.05-2.94.08-5.07.11-9.81-.06-14.81-.96q2-3,4.33-3.68c2.52-.3,4.93-.44,7.46-.43Z"/>
      <path class="cls-33" d="M105.45,299.88h34q-1,2-4,3.11c-4.31,1.12-8.5,1.23-12.93,1.21-.76.02-1.52.03-2.3.05-5.55,0-9.66-1.16-14.76-3.36v-1Z"/>
      <path class="cls-4" d="M187.45,237.88q-1.88,3.88-3,5c-.16,2.07-.25,4.15-.32,6.22-.04,1.26-.08,2.52-.13,3.82-.04,1.34-.08,2.68-.12,4.02-.04,1.34-.09,2.69-.13,4.03-.11,3.3-.21,6.6-.31,9.9h-1c-.07-4.06-.13-8.11-.16-12.17-.02-1.38-.04-2.76-.06-4.14-.04-1.99-.05-3.97-.07-5.96-.02-1.19-.03-2.39-.05-3.62.39-3.57,1.22-7.12,5.34-7.12Z"/>
      <path class="cls-1" d="M65.17,458.78q1.65.02,3.34.04t3.35.03c.85.01,1.71.02,2.59.04v1c-.76.01-1.52.03-2.3.04q-5.99.04-10.76,3.08c-1.07,3.28-2.09,6.54-2.94,9.88h-2c.45-5.59,2.01-13.86,8.72-14.1Z"/>
      <path class="cls-25" d="M47.45,103.88l2,4c-3.63,3.63-7.26,7.26-11,11l-2-1c.54-.59,1.09-1.18,1.64-1.79.72-.79,1.43-1.58,2.17-2.39.71-.78,1.42-1.55,2.14-2.36,1.98-2.38,3.53-4.77,5.04-7.46Z"/>
      <path class="cls-14" d="M93.45,358.88h3c.06.58.12,1.16.18,1.76.48,4.44,1.03,8.84,1.82,13.24-3.82-4.51-5.35-9.1-5-15Z"/>
      <path class="cls-29" d="M175.45,459.88l2,1c-1.45,1.51-2.91,3-4.38,4.5-.81.84-1.62,1.67-2.46,2.53q-2.16,1.97-4.16,1.97c1.38-3.21,2.92-5.05,5.62-7.25.63-.52,1.26-1.04,1.91-1.58q.72-.58,1.46-1.17Z"/>
      <path class="cls-8" d="M70.76,455.13q.84.37,1.69.75v3h-9q4.43-4.06,7.31-3.75Z"/>
      <path class="cls-7" d="M178.45,445.88c2.62,3.06,3,3.73,3,8h-8v-1h6c-.33-2.31-.66-4.62-1-7Z"/>
      <path class="cls-31" d="M21.45,227.88q0,3-1.53,4.82c-.65.61-1.3,1.23-1.97,1.86-.65.62-1.3,1.25-1.97,1.89-.51.47-1.01.94-1.53,1.43q0-3,2.38-5.56c.87-.8,1.73-1.61,2.62-2.44l2-2Z"/>
    </g>
  </g>
</svg>